<mxfile host="app.diagrams.net" modified="2023-08-30T23:25:04.809Z" agent="Mozilla/5.0 (Windows NT 10.0; Win64; x64) AppleWebKit/537.36 (KHTML, like Gecko) Chrome/116.0.0.0 Safari/537.36" etag="0YLXchY56--I_bXHlkiW" version="21.7.1" type="github">
  <diagram name="Página-1" id="KQdHF6F6N4KXOvcZL1xO">
    <mxGraphModel dx="2261" dy="782" grid="1" gridSize="10" guides="1" tooltips="1" connect="1" arrows="1" fold="1" page="1" pageScale="1" pageWidth="827" pageHeight="1169" math="0" shadow="0">
      <root>
        <mxCell id="0" />
        <mxCell id="1" parent="0" />
        <mxCell id="tKudgpd2kvBppkQEM8WQ-54" value="Consultor N1" style="swimlane;html=1;startSize=20;fontStyle=0;collapsible=0;horizontal=0;swimlaneLine=1;swimlaneFillColor=#ffffff;strokeWidth=2;whiteSpace=wrap;" vertex="1" parent="1">
          <mxGeometry y="450" width="1710" height="150" as="geometry" />
        </mxCell>
        <mxCell id="tKudgpd2kvBppkQEM8WQ-55" style="edgeStyle=orthogonalEdgeStyle;rounded=0;orthogonalLoop=1;jettySize=auto;html=1;entryX=0;entryY=0.5;entryDx=0;entryDy=0;entryPerimeter=0;" edge="1" parent="tKudgpd2kvBppkQEM8WQ-54" source="tKudgpd2kvBppkQEM8WQ-56" target="tKudgpd2kvBppkQEM8WQ-57">
          <mxGeometry relative="1" as="geometry" />
        </mxCell>
        <mxCell id="tKudgpd2kvBppkQEM8WQ-56" value="24 Horas&lt;br&gt;Seg - Sab" style="points=[[0.145,0.145,0],[0.5,0,0],[0.855,0.145,0],[1,0.5,0],[0.855,0.855,0],[0.5,1,0],[0.145,0.855,0],[0,0.5,0]];shape=mxgraph.bpmn.event;html=1;verticalLabelPosition=bottom;labelBackgroundColor=#ffffff;verticalAlign=top;align=center;perimeter=ellipsePerimeter;outlineConnect=0;aspect=fixed;outline=eventNonint;symbol=timer;fillColor=#009900;strokeColor=#000000;" vertex="1" parent="tKudgpd2kvBppkQEM8WQ-54">
          <mxGeometry x="36" y="48" width="54" height="54" as="geometry" />
        </mxCell>
        <mxCell id="tKudgpd2kvBppkQEM8WQ-57" value="Recebe e analisa o chamado&amp;nbsp;" style="points=[[0.25,0,0],[0.5,0,0],[0.75,0,0],[1,0.25,0],[1,0.5,0],[1,0.75,0],[0.75,1,0],[0.5,1,0],[0.25,1,0],[0,0.75,0],[0,0.5,0],[0,0.25,0]];shape=mxgraph.bpmn.task;whiteSpace=wrap;rectStyle=rounded;size=10;html=1;container=1;expand=0;collapsible=0;taskMarker=abstract;" vertex="1" parent="tKudgpd2kvBppkQEM8WQ-54">
          <mxGeometry x="160" y="35" width="120" height="80" as="geometry" />
        </mxCell>
        <mxCell id="tKudgpd2kvBppkQEM8WQ-60" style="edgeStyle=orthogonalEdgeStyle;rounded=0;orthogonalLoop=1;jettySize=auto;html=1;exitX=1;exitY=0.5;exitDx=0;exitDy=0;exitPerimeter=0;entryX=0;entryY=0.5;entryDx=0;entryDy=0;entryPerimeter=0;" edge="1" parent="tKudgpd2kvBppkQEM8WQ-54" source="tKudgpd2kvBppkQEM8WQ-61" target="tKudgpd2kvBppkQEM8WQ-62">
          <mxGeometry relative="1" as="geometry">
            <mxPoint x="746" y="77.16666666666674" as="targetPoint" />
          </mxGeometry>
        </mxCell>
        <mxCell id="tKudgpd2kvBppkQEM8WQ-61" value="Realiza uma avaliação" style="points=[[0.25,0,0],[0.5,0,0],[0.75,0,0],[1,0.25,0],[1,0.5,0],[1,0.75,0],[0.75,1,0],[0.5,1,0],[0.25,1,0],[0,0.75,0],[0,0.5,0],[0,0.25,0]];shape=mxgraph.bpmn.task;whiteSpace=wrap;rectStyle=rounded;size=10;html=1;container=1;expand=0;collapsible=0;taskMarker=abstract;" vertex="1" parent="tKudgpd2kvBppkQEM8WQ-54">
          <mxGeometry x="850" y="35" width="120" height="80" as="geometry" />
        </mxCell>
        <mxCell id="tKudgpd2kvBppkQEM8WQ-62" value="Envia o orçamento ao cliente" style="points=[[0.25,0,0],[0.5,0,0],[0.75,0,0],[1,0.25,0],[1,0.5,0],[1,0.75,0],[0.75,1,0],[0.5,1,0],[0.25,1,0],[0,0.75,0],[0,0.5,0],[0,0.25,0]];shape=mxgraph.bpmn.task;whiteSpace=wrap;rectStyle=rounded;size=10;html=1;container=1;expand=0;collapsible=0;taskMarker=abstract;" vertex="1" parent="tKudgpd2kvBppkQEM8WQ-54">
          <mxGeometry x="1110.5" y="34" width="120" height="82" as="geometry" />
        </mxCell>
        <mxCell id="tKudgpd2kvBppkQEM8WQ-63" value="Envia as informações técnicas para o N2" style="points=[[0.25,0,0],[0.5,0,0],[0.75,0,0],[1,0.25,0],[1,0.5,0],[1,0.75,0],[0.75,1,0],[0.5,1,0],[0.25,1,0],[0,0.75,0],[0,0.5,0],[0,0.25,0]];shape=mxgraph.bpmn.task;whiteSpace=wrap;rectStyle=rounded;size=10;html=1;container=1;expand=0;collapsible=0;taskMarker=abstract;" vertex="1" parent="tKudgpd2kvBppkQEM8WQ-54">
          <mxGeometry x="1450" y="35" width="120" height="80" as="geometry" />
        </mxCell>
        <mxCell id="tKudgpd2kvBppkQEM8WQ-59" value="Agenda um horário" style="points=[[0.25,0,0],[0.5,0,0],[0.75,0,0],[1,0.25,0],[1,0.5,0],[1,0.75,0],[0.75,1,0],[0.5,1,0],[0.25,1,0],[0,0.75,0],[0,0.5,0],[0,0.25,0]];shape=mxgraph.bpmn.task;whiteSpace=wrap;rectStyle=rounded;size=10;html=1;container=1;expand=0;collapsible=0;taskMarker=abstract;" vertex="1" parent="tKudgpd2kvBppkQEM8WQ-54">
          <mxGeometry x="550" y="34" width="120" height="80" as="geometry" />
        </mxCell>
        <mxCell id="tKudgpd2kvBppkQEM8WQ-64" value="Cliente" style="swimlane;html=1;startSize=20;fontStyle=0;collapsible=0;horizontal=0;swimlaneLine=1;swimlaneFillColor=#ffffff;strokeWidth=2;whiteSpace=wrap;" vertex="1" parent="1">
          <mxGeometry y="20" width="1710" height="410" as="geometry" />
        </mxCell>
        <mxCell id="tKudgpd2kvBppkQEM8WQ-65" style="edgeStyle=orthogonalEdgeStyle;rounded=0;orthogonalLoop=1;jettySize=auto;html=1;exitX=1;exitY=0.5;exitDx=0;exitDy=0;exitPerimeter=0;" edge="1" parent="tKudgpd2kvBppkQEM8WQ-64" source="tKudgpd2kvBppkQEM8WQ-67">
          <mxGeometry relative="1" as="geometry">
            <mxPoint x="85.94117647058829" y="205.11764705882342" as="targetPoint" />
          </mxGeometry>
        </mxCell>
        <mxCell id="tKudgpd2kvBppkQEM8WQ-66" style="edgeStyle=orthogonalEdgeStyle;rounded=0;orthogonalLoop=1;jettySize=auto;html=1;exitX=1;exitY=0.5;exitDx=0;exitDy=0;exitPerimeter=0;entryX=0;entryY=0.5;entryDx=0;entryDy=0;entryPerimeter=0;" edge="1" parent="tKudgpd2kvBppkQEM8WQ-64" source="tKudgpd2kvBppkQEM8WQ-67" target="tKudgpd2kvBppkQEM8WQ-70">
          <mxGeometry relative="1" as="geometry" />
        </mxCell>
        <mxCell id="tKudgpd2kvBppkQEM8WQ-67" value="Inicio" style="points=[[0.145,0.145,0],[0.5,0,0],[0.855,0.145,0],[1,0.5,0],[0.855,0.855,0],[0.5,1,0],[0.145,0.855,0],[0,0.5,0]];shape=mxgraph.bpmn.event;html=1;verticalLabelPosition=bottom;labelBackgroundColor=#ffffff;verticalAlign=top;align=center;perimeter=ellipsePerimeter;outlineConnect=0;aspect=fixed;outline=standard;symbol=general;fillColor=#20a220;" vertex="1" parent="tKudgpd2kvBppkQEM8WQ-64">
          <mxGeometry x="36" y="180" width="50" height="50" as="geometry" />
        </mxCell>
        <mxCell id="tKudgpd2kvBppkQEM8WQ-68" style="edgeStyle=orthogonalEdgeStyle;rounded=0;orthogonalLoop=1;jettySize=auto;html=1;exitX=0.5;exitY=1;exitDx=0;exitDy=0;exitPerimeter=0;dashed=1;" edge="1" parent="tKudgpd2kvBppkQEM8WQ-64" source="tKudgpd2kvBppkQEM8WQ-70">
          <mxGeometry relative="1" as="geometry">
            <mxPoint x="206" y="170" as="targetPoint" />
            <Array as="points">
              <mxPoint x="186" y="170" />
            </Array>
          </mxGeometry>
        </mxCell>
        <mxCell id="tKudgpd2kvBppkQEM8WQ-69" style="edgeStyle=orthogonalEdgeStyle;rounded=0;orthogonalLoop=1;jettySize=auto;html=1;exitX=0.5;exitY=0;exitDx=0;exitDy=0;exitPerimeter=0;entryX=0;entryY=0.5;entryDx=0;entryDy=0;entryPerimeter=0;endArrow=classic;endFill=0;dashed=1;dashPattern=8 8;" edge="1" parent="tKudgpd2kvBppkQEM8WQ-64" source="tKudgpd2kvBppkQEM8WQ-70" target="tKudgpd2kvBppkQEM8WQ-71">
          <mxGeometry relative="1" as="geometry" />
        </mxCell>
        <mxCell id="tKudgpd2kvBppkQEM8WQ-70" value="Abrir um chamado para AlexaHome Solutions" style="points=[[0.25,0,0],[0.5,0,0],[0.75,0,0],[1,0.25,0],[1,0.5,0],[1,0.75,0],[0.75,1,0],[0.5,1,0],[0.25,1,0],[0,0.75,0],[0,0.5,0],[0,0.25,0]];shape=mxgraph.bpmn.task;whiteSpace=wrap;rectStyle=rounded;size=10;html=1;container=1;expand=0;collapsible=0;taskMarker=abstract;" vertex="1" parent="tKudgpd2kvBppkQEM8WQ-64">
          <mxGeometry x="150" y="165" width="140" height="80" as="geometry" />
        </mxCell>
        <mxCell id="tKudgpd2kvBppkQEM8WQ-71" value="Foto dos pontos&lt;br&gt;de Instalação e&lt;br&gt;modelo da Alexa." style="shape=mxgraph.bpmn.data;labelPosition=center;verticalLabelPosition=bottom;align=center;verticalAlign=top;size=15;html=1;" vertex="1" parent="tKudgpd2kvBppkQEM8WQ-64">
          <mxGeometry x="380" y="20" width="40" height="55" as="geometry" />
        </mxCell>
        <mxCell id="tKudgpd2kvBppkQEM8WQ-74" value="Sim" style="edgeStyle=orthogonalEdgeStyle;rounded=0;orthogonalLoop=1;jettySize=auto;html=1;exitX=1;exitY=0.5;exitDx=0;exitDy=0;exitPerimeter=0;entryX=0;entryY=0.5;entryDx=0;entryDy=0;entryPerimeter=0;" edge="1" parent="tKudgpd2kvBppkQEM8WQ-64" source="tKudgpd2kvBppkQEM8WQ-76" target="tKudgpd2kvBppkQEM8WQ-79">
          <mxGeometry relative="1" as="geometry">
            <mxPoint x="1431" y="204.7500000000001" as="targetPoint" />
            <mxPoint x="1240.9999999999995" y="204.4999999999999" as="sourcePoint" />
          </mxGeometry>
        </mxCell>
        <mxCell id="tKudgpd2kvBppkQEM8WQ-114" value="Não" style="edgeStyle=orthogonalEdgeStyle;rounded=0;orthogonalLoop=1;jettySize=auto;html=1;exitX=0.5;exitY=0;exitDx=0;exitDy=0;exitPerimeter=0;entryX=0;entryY=0.5;entryDx=0;entryDy=0;entryPerimeter=0;" edge="1" parent="tKudgpd2kvBppkQEM8WQ-64" source="tKudgpd2kvBppkQEM8WQ-76" target="tKudgpd2kvBppkQEM8WQ-77">
          <mxGeometry relative="1" as="geometry" />
        </mxCell>
        <mxCell id="tKudgpd2kvBppkQEM8WQ-76" value="Aceita?" style="points=[[0.25,0.25,0],[0.5,0,0],[0.75,0.25,0],[1,0.5,0],[0.75,0.75,0],[0.5,1,0],[0.25,0.75,0],[0,0.5,0]];shape=mxgraph.bpmn.gateway2;html=1;verticalLabelPosition=bottom;labelBackgroundColor=#ffffff;verticalAlign=top;align=center;perimeter=rhombusPerimeter;outlineConnect=0;outline=none;symbol=none;fillColor=#FFFF33;" vertex="1" parent="tKudgpd2kvBppkQEM8WQ-64">
          <mxGeometry x="1191" y="180" width="50" height="50" as="geometry" />
        </mxCell>
        <mxCell id="tKudgpd2kvBppkQEM8WQ-79" value="Aprova o orçamento" style="points=[[0.25,0,0],[0.5,0,0],[0.75,0,0],[1,0.25,0],[1,0.5,0],[1,0.75,0],[0.75,1,0],[0.5,1,0],[0.25,1,0],[0,0.75,0],[0,0.5,0],[0,0.25,0]];shape=mxgraph.bpmn.task;whiteSpace=wrap;rectStyle=rounded;size=10;html=1;container=1;expand=0;collapsible=0;taskMarker=abstract;" vertex="1" parent="tKudgpd2kvBppkQEM8WQ-64">
          <mxGeometry x="1450" y="165" width="120" height="80" as="geometry" />
        </mxCell>
        <mxCell id="tKudgpd2kvBppkQEM8WQ-94" value="2 Horas" style="points=[[0.145,0.145,0],[0.5,0,0],[0.855,0.145,0],[1,0.5,0],[0.855,0.855,0],[0.5,1,0],[0.145,0.855,0],[0,0.5,0]];shape=mxgraph.bpmn.event;html=1;verticalLabelPosition=bottom;labelBackgroundColor=#ffffff;verticalAlign=top;align=center;perimeter=ellipsePerimeter;outlineConnect=0;aspect=fixed;outline=throwing;symbol=general;fillColor=#fff2cc;strokeColor=#d6b656;" vertex="1" parent="tKudgpd2kvBppkQEM8WQ-64">
          <mxGeometry x="384" y="175" width="60" height="60" as="geometry" />
        </mxCell>
        <mxCell id="tKudgpd2kvBppkQEM8WQ-77" value="Encerra o chamado" style="points=[[0.145,0.145,0],[0.5,0,0],[0.855,0.145,0],[1,0.5,0],[0.855,0.855,0],[0.5,1,0],[0.145,0.855,0],[0,0.5,0]];shape=mxgraph.bpmn.event;html=1;verticalLabelPosition=bottom;labelBackgroundColor=#ffffff;verticalAlign=top;align=center;perimeter=ellipsePerimeter;outlineConnect=0;aspect=fixed;outline=end;symbol=terminate2;fillColor=#FF0000;" vertex="1" parent="tKudgpd2kvBppkQEM8WQ-64">
          <mxGeometry x="1370" y="25" width="50" height="50" as="geometry" />
        </mxCell>
        <mxCell id="tKudgpd2kvBppkQEM8WQ-107" value="Encerra o chamado" style="points=[[0.145,0.145,0],[0.5,0,0],[0.855,0.145,0],[1,0.5,0],[0.855,0.855,0],[0.5,1,0],[0.145,0.855,0],[0,0.5,0]];shape=mxgraph.bpmn.event;html=1;verticalLabelPosition=bottom;labelBackgroundColor=#ffffff;verticalAlign=top;align=center;perimeter=ellipsePerimeter;outlineConnect=0;aspect=fixed;outline=end;symbol=terminate2;fillColor=#FF0000;" vertex="1" parent="tKudgpd2kvBppkQEM8WQ-64">
          <mxGeometry x="880" y="25" width="50" height="50" as="geometry" />
        </mxCell>
        <mxCell id="tKudgpd2kvBppkQEM8WQ-115" value="Não" style="edgeStyle=orthogonalEdgeStyle;rounded=0;orthogonalLoop=1;jettySize=auto;html=1;exitX=0.5;exitY=0;exitDx=0;exitDy=0;exitPerimeter=0;entryX=0;entryY=0.5;entryDx=0;entryDy=0;entryPerimeter=0;" edge="1" parent="tKudgpd2kvBppkQEM8WQ-64" source="tKudgpd2kvBppkQEM8WQ-103" target="tKudgpd2kvBppkQEM8WQ-107">
          <mxGeometry relative="1" as="geometry" />
        </mxCell>
        <mxCell id="tKudgpd2kvBppkQEM8WQ-103" value="Aprova?" style="points=[[0.25,0.25,0],[0.5,0,0],[0.75,0.25,0],[1,0.5,0],[0.75,0.75,0],[0.5,1,0],[0.25,0.75,0],[0,0.5,0]];shape=mxgraph.bpmn.gateway2;html=1;verticalLabelPosition=bottom;labelBackgroundColor=#ffffff;verticalAlign=top;align=center;perimeter=rhombusPerimeter;outlineConnect=0;outline=none;symbol=none;fillColor=#FFFF33;" vertex="1" parent="tKudgpd2kvBppkQEM8WQ-64">
          <mxGeometry x="710" y="177.57" width="55" height="54.86" as="geometry" />
        </mxCell>
        <mxCell id="tKudgpd2kvBppkQEM8WQ-92" style="edgeStyle=orthogonalEdgeStyle;rounded=0;orthogonalLoop=1;jettySize=auto;html=1;exitX=0.5;exitY=1;exitDx=0;exitDy=0;exitPerimeter=0;entryX=0.5;entryY=0;entryDx=0;entryDy=0;entryPerimeter=0;dashed=1;endArrow=block;endFill=0;" edge="1" parent="1" source="tKudgpd2kvBppkQEM8WQ-79" target="tKudgpd2kvBppkQEM8WQ-63">
          <mxGeometry relative="1" as="geometry" />
        </mxCell>
        <mxCell id="tKudgpd2kvBppkQEM8WQ-93" style="edgeStyle=orthogonalEdgeStyle;rounded=0;orthogonalLoop=1;jettySize=auto;html=1;exitX=1;exitY=0.5;exitDx=0;exitDy=0;exitPerimeter=0;entryX=0;entryY=0.5;entryDx=0;entryDy=0;entryPerimeter=0;endArrow=block;endFill=0;dashed=1;" edge="1" parent="1" source="tKudgpd2kvBppkQEM8WQ-57" target="tKudgpd2kvBppkQEM8WQ-94">
          <mxGeometry relative="1" as="geometry">
            <mxPoint x="510" y="265" as="targetPoint" />
          </mxGeometry>
        </mxCell>
        <mxCell id="tKudgpd2kvBppkQEM8WQ-95" style="edgeStyle=orthogonalEdgeStyle;rounded=0;orthogonalLoop=1;jettySize=auto;html=1;exitX=0.5;exitY=1;exitDx=0;exitDy=0;exitPerimeter=0;entryX=0.5;entryY=0;entryDx=0;entryDy=0;entryPerimeter=0;endArrow=block;endFill=0;dashed=1;" edge="1" parent="1" source="tKudgpd2kvBppkQEM8WQ-70" target="tKudgpd2kvBppkQEM8WQ-57">
          <mxGeometry relative="1" as="geometry" />
        </mxCell>
        <mxCell id="tKudgpd2kvBppkQEM8WQ-98" style="edgeStyle=orthogonalEdgeStyle;rounded=0;orthogonalLoop=1;jettySize=auto;html=1;exitX=1;exitY=0.5;exitDx=0;exitDy=0;exitPerimeter=0;entryX=0;entryY=0.5;entryDx=0;entryDy=0;entryPerimeter=0;endArrow=block;endFill=0;dashed=1;" edge="1" parent="1" source="tKudgpd2kvBppkQEM8WQ-94" target="tKudgpd2kvBppkQEM8WQ-59">
          <mxGeometry relative="1" as="geometry" />
        </mxCell>
        <mxCell id="tKudgpd2kvBppkQEM8WQ-104" value="" style="edgeStyle=orthogonalEdgeStyle;rounded=0;orthogonalLoop=1;jettySize=auto;html=1;exitX=1;exitY=0.5;exitDx=0;exitDy=0;exitPerimeter=0;entryX=0;entryY=0.5;entryDx=0;entryDy=0;entryPerimeter=0;" edge="1" parent="1" source="tKudgpd2kvBppkQEM8WQ-59" target="tKudgpd2kvBppkQEM8WQ-103">
          <mxGeometry relative="1" as="geometry">
            <mxPoint x="630" y="544" as="sourcePoint" />
            <mxPoint x="700" y="225" as="targetPoint" />
          </mxGeometry>
        </mxCell>
        <mxCell id="tKudgpd2kvBppkQEM8WQ-110" value="Sim" style="edgeStyle=orthogonalEdgeStyle;rounded=0;orthogonalLoop=1;jettySize=auto;html=1;entryX=0.5;entryY=0;entryDx=0;entryDy=0;entryPerimeter=0;endArrow=block;endFill=0;dashed=1;exitX=1;exitY=0.5;exitDx=0;exitDy=0;exitPerimeter=0;" edge="1" parent="1" source="tKudgpd2kvBppkQEM8WQ-103" target="tKudgpd2kvBppkQEM8WQ-61">
          <mxGeometry relative="1" as="geometry">
            <mxPoint x="910" y="230" as="sourcePoint" />
          </mxGeometry>
        </mxCell>
        <mxCell id="tKudgpd2kvBppkQEM8WQ-113" style="edgeStyle=orthogonalEdgeStyle;rounded=0;orthogonalLoop=1;jettySize=auto;html=1;exitX=0.5;exitY=0;exitDx=0;exitDy=0;exitPerimeter=0;entryX=0;entryY=0.5;entryDx=0;entryDy=0;entryPerimeter=0;" edge="1" parent="1" source="tKudgpd2kvBppkQEM8WQ-62" target="tKudgpd2kvBppkQEM8WQ-76">
          <mxGeometry relative="1" as="geometry" />
        </mxCell>
      </root>
    </mxGraphModel>
  </diagram>
</mxfile>
